<?xml version="1.0" encoding="UTF-8"?><svg id="Layer_2" xmlns="http://www.w3.org/2000/svg" viewBox="0 0 552.91 668.75"><defs><style>.cls-1{fill:#facaff;}.cls-1,.cls-2,.cls-3{stroke-width:0px;}.cls-2{fill:#39a1ff;}.cls-3{fill:#003654;}</style></defs><g id="Layer_1-2"><path class="cls-1" d="m398.15,257.7l-242.19,155.39L35.09,234.99C-9.61,169.24,7.66,79.84,73.17,35.13c24.84-16.79,52.74-24.83,80.65-24.83,46.12,0,91.29,22.23,119.2,63.15l125.12,184.25Z"/><path class="cls-2" d="m479.51,633.76c-65.52,44.47-154.92,27.44-199.62-38.32l-123.94-182.35,242.19-155.39,119.68,176.2c44.47,65.75,27.44,155.15-38.32,199.86Z"/><path class="cls-3" d="m526.34,428.11l-117.85-173.52-126.95-186.95C252.65,25.29,204.9,0,153.82,0c-30.8,0-60.69,9.2-86.46,26.63C-2.84,74.53-21.14,170.6,26.57,240.77l114.92,169.35h0s6.07,8.93,6.07,8.93l5.51,8.12h0s118.3,174.06,118.3,174.06c29.82,43.87,78.42,67.52,127.8,67.52,29.73,0,59.75-8.58,86.12-26.47h0c34.06-23.16,57.08-58.18,64.81-98.62,7.73-40.41-.71-81.44-23.77-115.54ZM43.61,229.2C2.27,168.39,18.14,85.15,78.94,43.67c22.32-15.09,48.21-23.07,74.88-23.07,44.26,0,85.64,21.93,110.68,58.64l119.18,175.5-224.85,144.26L43.61,229.2Zm430.1,396.04c-60.79,41.25-143.92,25.29-185.31-35.59l-117.99-173.61,224.85-144.26,114.03,167.89c41.22,60.96,25.27,144.21-35.57,185.57Z"/></g></svg>