<?xml version="1.0" encoding="UTF-8"?><svg id="Layer_2" xmlns="http://www.w3.org/2000/svg" viewBox="0 0 1668.81 915.25"><defs><style>.cls-1{stroke-width:5.62px;}.cls-1,.cls-2,.cls-3{fill:#fee;stroke:#fff;stroke-miterlimit:10;}.cls-4{fill:#ffa9a9;}.cls-4,.cls-5{stroke-width:0px;}.cls-2{stroke-width:11.61px;}.cls-3{stroke-width:10.31px;}.cls-5{fill:#fff;}</style></defs><g id="Layer_2-2"><path class="cls-2" d="M371.11,312.53s90.76-54.96,115.24-108.64l273.18-86.41s-255.8,304.45-334.96,236.28c-29.64-25.53-53.46-41.23-53.46-41.23Z"/><path class="cls-3" d="M142.58,427.84s-43.32-102.63-94.15-99c-50.83,3.63-69.91,100.87,16.16,229.61,40.34,60.34,64.54,100.08,77.83,125.98,15.65,30.5,43,48.7,70.82,46.93,42.61-2.71,97.34-15.95,127.11-61.97,53.4-82.55-50.59-8.4-59.02-17.6s-138.74-223.95-138.74-223.95Z"/><path class="cls-2" d="M393.56,169.12c-6.73,1.12-90.27,1.03-165.2.7-62.66-.27-114.22,47.74-119.54,109.01-.72,8.29-2.06,16.52-4.19,24.57l-3.36,12.64c-2.46,9.26-18.33,40.86-18.33,40.86-9.35,4.6-14.35,27.9-14.35,38.32v21.61c0,4.82,2.56,29.33,13.4,29.33l9.34,5.21c5.66,0-3.57,11.76,24.21,34.84-5.51,1.45,53.98,30.72,88.32,24.66l27.21-11.1h131.7c33.23,0,62.78-21.16,73.48-52.62l8.4-24.69c3.2-9.4,23.99-30.19,42.07-47,14.48-13.47,13.96-36.56-1.12-49.36h0c-31.89-27.05-56.34-61.81-71.02-100.96l-21.01-56.02Z"/><path class="cls-5" d="M263.21,300.5s-30.92,54.9-106.61,56.5c0,0,28.78-56.5,106.61-56.5Z"/><path class="cls-2" d="M557.05,190.29c-8.82-3.38,808.33-190.75,972.64,71.77,0,0,156.76,183.2,130.31,268.18-26.44,84.99-387.29,306.03-610.9,282.07-574.78-61.58-393.84,139.08-569.48,89.04-175.64-50.04-271.96-53.56-239.85-386.08,32.11-332.53,283.29-151.57,194.53-61.69s-107.44,320.3-33.89,303.3c73.55-17,247.77-152.66,209.53-241.61-56.58-131.63,57.8-253.88,303.79-308.55,0,0-194.25,45.9-356.67-16.43Z"/><path class="cls-2" d="M209.9,177.77S275.78,5.8,765.15,5.8s-238.87,200.91-414.99,200.91c-120.82,0-140.26-28.94-140.26-28.94Z"/><path class="cls-2" d="M378.48,206.71s383.03-360.78,1160.41-109.72c0,0-82.14,173.73-886.37,133.45l-274.04-23.74Z"/><path class="cls-2" d="M1341.21,427.16c2,9.98,38.82,269.34-382.53,269.34-227.69,0-297.24,138.82-297.24,138.82"/><path class="cls-1" d="M1649.95,607.8s-91.39,104.26-149.51,105.87l56.21,15.27c44.71,12.15,89.12-20.37,91.04-66.66l2.26-54.49Z"/><path class="cls-4" d="M577.62,585.53l-13.15-28.18-82.45,23.84-31.78-62.09-37.55,12.48c14.27-33.86,41.41-64.24,73.19-78.48,23.47-11.05,54.93-21.07,73.12,4.17,26.64,33.97,31.48,85.08,18.62,128.26Z"/><path class="cls-4" d="M570.9,602.1c-19.33,44.37-59.19,75.12-114.18,59.38-52.61-22.39-63.25-70.03-50.02-115.06l36.62-12.17,31.58,61.7,82.05-23.73,13.94,29.88Z"/></g></svg>